<svg width="48" height="19" viewBox="0 0 48 19" fill="none" xmlns="http://www.w3.org/2000/svg">
<path d="M47.9999 17.7205H47.437V17.0493H47.9999V17.7205Z" fill="white"/>
<path d="M45.9134 17.7805C45.4942 17.7805 45.1684 17.6628 44.936 17.4273C44.7052 17.1902 44.5898 16.8542 44.5898 16.4193C44.5898 15.9906 44.7021 15.6499 44.9266 15.3972C45.1511 15.1428 45.4448 15.0156 45.8074 15.0156C45.9707 15.0156 46.1152 15.0392 46.2408 15.0863C46.3664 15.1334 46.4763 15.2072 46.5705 15.3077C46.6647 15.4081 46.7369 15.5314 46.7872 15.6774C46.8374 15.8219 46.8625 15.9993 46.8625 16.2097V16.4499H45.0397C45.0397 16.7561 45.1166 16.99 45.2705 17.1517C45.4243 17.3134 45.6371 17.3943 45.9087 17.3943C46.0061 17.3943 46.1011 17.3833 46.1937 17.3613C46.2879 17.3394 46.3727 17.3111 46.448 17.2765C46.5281 17.2404 46.5956 17.2059 46.6506 17.1729C46.7055 17.1384 46.7511 17.1062 46.7872 17.0764H46.8131V17.5592C46.7613 17.5796 46.6969 17.6055 46.62 17.6369C46.543 17.6667 46.4739 17.6903 46.4127 17.7075C46.3264 17.7311 46.2479 17.7491 46.1772 17.7617C46.1081 17.7743 46.0202 17.7805 45.9134 17.7805ZM46.4316 16.1108C46.4284 15.9914 46.4143 15.8886 46.3892 15.8022C46.364 15.7159 46.3279 15.6429 46.2808 15.5832C46.229 15.5173 46.1623 15.467 46.0806 15.4325C46.0006 15.3979 45.9009 15.3807 45.7815 15.3807C45.6638 15.3807 45.5633 15.3987 45.4801 15.4348C45.3984 15.4694 45.3239 15.5204 45.2563 15.5879C45.1904 15.657 45.1402 15.7339 45.1056 15.8187C45.0711 15.9019 45.0491 15.9993 45.0397 16.1108H46.4316Z" fill="white"/>
<path d="M43.9511 17.771C43.7094 17.771 43.5209 17.7027 43.3859 17.5661C43.2509 17.4279 43.1834 17.2105 43.1834 16.9137V15.4559H42.8843V15.0885H43.1834V14.3325H43.6261V15.0885H44.441V15.4559H43.6261V16.7065C43.6261 16.8399 43.6285 16.9428 43.6332 17.015C43.6379 17.0872 43.656 17.1547 43.6874 17.2176C43.7141 17.2725 43.7572 17.3141 43.8169 17.3424C43.8766 17.3691 43.9574 17.3824 44.0595 17.3824C44.1317 17.3824 44.2016 17.3722 44.2691 17.3518C44.3366 17.3298 44.3853 17.3118 44.4151 17.2976H44.441V17.6956C44.3578 17.7192 44.273 17.7372 44.1867 17.7498C44.1019 17.7639 44.0234 17.771 43.9511 17.771Z" fill="white"/>
<path d="M42.0908 17.0715V16.3414C41.9856 16.3508 41.8521 16.3642 41.6904 16.3815C41.5303 16.3972 41.4007 16.4199 41.3018 16.4498C41.1841 16.4859 41.0867 16.5416 41.0098 16.617C40.9329 16.6908 40.8944 16.7944 40.8944 16.9278C40.8944 17.0786 40.9368 17.1924 41.0216 17.2693C41.1064 17.3463 41.2304 17.3847 41.3937 17.3847C41.5334 17.3847 41.6598 17.3549 41.7729 17.2952C41.8859 17.234 41.9919 17.1594 42.0908 17.0715ZM42.0908 17.4389C42.0547 17.4656 42.006 17.5033 41.9448 17.552C41.8851 17.5991 41.827 17.6367 41.7705 17.665C41.692 17.7058 41.6158 17.7372 41.5421 17.7592C41.4698 17.7812 41.3678 17.7922 41.2359 17.7922C41.1276 17.7922 41.0247 17.7718 40.9274 17.7309C40.83 17.6901 40.7445 17.6328 40.6707 17.559C40.6 17.4868 40.5435 17.3981 40.5011 17.2929C40.4587 17.1861 40.4375 17.0739 40.4375 16.9561C40.4375 16.774 40.476 16.6193 40.5529 16.4921C40.6298 16.3634 40.7515 16.2613 40.9179 16.186C41.0655 16.1185 41.2398 16.0721 41.4408 16.047C41.6418 16.0203 41.8584 16.0007 42.0908 15.9881V15.9034C42.0908 15.7997 42.0751 15.7165 42.0437 15.6537C42.0123 15.5893 41.9683 15.5399 41.9118 15.5053C41.8553 15.4692 41.7862 15.4457 41.7046 15.4347C41.6229 15.4221 41.5389 15.4159 41.4526 15.4159C41.3505 15.4159 41.2304 15.4316 41.0922 15.463C40.9541 15.4928 40.8159 15.5368 40.6777 15.5948H40.6518V15.145C40.7335 15.1215 40.8504 15.0956 41.0027 15.0673C41.155 15.039 41.3058 15.0249 41.4549 15.0249C41.6355 15.0249 41.7878 15.039 41.9118 15.0673C42.0358 15.0956 42.1473 15.1466 42.2462 15.2204C42.342 15.2926 42.4135 15.386 42.4606 15.5006C42.5077 15.6153 42.5312 15.755 42.5312 15.9199V17.7192H42.0908V17.4389Z" fill="white"/>
<path d="M39.2249 17.7805C38.8057 17.7805 38.4799 17.6628 38.2476 17.4273C38.0168 17.1902 37.9014 16.8542 37.9014 16.4193C37.9014 15.9906 38.0136 15.6499 38.2382 15.3972C38.4627 15.1428 38.7563 15.0156 39.119 15.0156C39.2823 15.0156 39.4267 15.0392 39.5523 15.0863C39.6779 15.1334 39.7878 15.2072 39.882 15.3077C39.9762 15.4081 40.0485 15.5314 40.0987 15.6774C40.1489 15.8219 40.1741 15.9993 40.1741 16.2097V16.4499H38.3512C38.3512 16.7561 38.4281 16.99 38.582 17.1517C38.7359 17.3134 38.9486 17.3943 39.2202 17.3943C39.3176 17.3943 39.4126 17.3833 39.5052 17.3613C39.5994 17.3394 39.6842 17.3111 39.7596 17.2765C39.8396 17.2404 39.9072 17.2059 39.9621 17.1729C40.0171 17.1384 40.0626 17.1062 40.0987 17.0764H40.1246V17.5592C40.0728 17.5796 40.0084 17.6055 39.9315 17.6369C39.8546 17.6667 39.7855 17.6903 39.7242 17.7075C39.6379 17.7311 39.5594 17.7491 39.4887 17.7617C39.4196 17.7743 39.3317 17.7805 39.2249 17.7805ZM39.7431 16.1108C39.7399 15.9914 39.7258 15.8886 39.7007 15.8022C39.6756 15.7159 39.6395 15.6429 39.5923 15.5832C39.5405 15.5173 39.4738 15.467 39.3922 15.4325C39.3121 15.3979 39.2124 15.3807 39.0931 15.3807C38.9753 15.3807 38.8748 15.3987 38.7916 15.4348C38.71 15.4694 38.6354 15.5204 38.5679 15.5879C38.5019 15.657 38.4517 15.7339 38.4171 15.8187C38.3826 15.9019 38.3606 15.9993 38.3512 16.1108H39.7431Z" fill="white"/>
<path d="M37.7624 15.5651H37.7388C37.7059 15.5557 37.6705 15.5502 37.6329 15.5486C37.5968 15.5455 37.5528 15.5439 37.501 15.5439C37.3817 15.5439 37.2631 15.5698 37.1454 15.6216C37.0276 15.6734 36.9161 15.7504 36.8109 15.8524V17.72H36.3682V15.0894H36.8109V15.4803C36.9726 15.3374 37.1132 15.2369 37.2325 15.1789C37.3534 15.1192 37.4704 15.0894 37.5834 15.0894C37.6289 15.0894 37.6627 15.0909 37.6847 15.0941C37.7082 15.0956 37.7341 15.0988 37.7624 15.1035V15.5651Z" fill="white"/>
<path d="M34.8775 17.7843C34.6483 17.7843 34.4371 17.7459 34.244 17.6689C34.0524 17.592 33.8868 17.4774 33.747 17.3251C33.6073 17.1728 33.499 16.9828 33.422 16.7552C33.3451 16.5275 33.3066 16.2661 33.3066 15.9709C33.3066 15.6773 33.3435 15.4214 33.4173 15.2031C33.4927 14.9849 33.6018 14.7949 33.7447 14.6332C33.8844 14.4762 34.0501 14.3569 34.2416 14.2752C34.4332 14.192 34.6475 14.1504 34.8846 14.1504C35.0023 14.1504 35.1122 14.159 35.2143 14.1763C35.3179 14.1936 35.4137 14.2155 35.5016 14.2422C35.577 14.2658 35.6539 14.2956 35.7324 14.3317C35.8125 14.3663 35.891 14.4047 35.9679 14.4471V15.01H35.9303C35.8894 14.9723 35.8368 14.9268 35.7725 14.8734C35.7081 14.82 35.6296 14.7674 35.5369 14.7156C35.4475 14.6669 35.3501 14.6269 35.2449 14.5955C35.1397 14.5641 35.018 14.5484 34.8799 14.5484C34.7307 14.5484 34.5894 14.579 34.4559 14.6403C34.3225 14.7015 34.2055 14.7918 34.105 14.9111C34.0061 15.0304 33.9292 15.1804 33.8742 15.3609C33.8193 15.5415 33.7918 15.7448 33.7918 15.9709C33.7918 16.2111 33.8208 16.4184 33.8789 16.5927C33.937 16.7654 34.0163 16.9114 34.1168 17.0307C34.2141 17.1469 34.3288 17.2348 34.4607 17.2945C34.5925 17.3526 34.7323 17.3816 34.8799 17.3816C35.0149 17.3816 35.1397 17.3651 35.2543 17.3322C35.3689 17.2992 35.471 17.2576 35.5605 17.2073C35.6469 17.1587 35.7214 17.1092 35.7842 17.059C35.847 17.0072 35.8965 16.9632 35.9326 16.9271H35.9679V17.4829C35.891 17.519 35.818 17.5535 35.7489 17.5865C35.6814 17.6195 35.599 17.6517 35.5016 17.6831C35.3996 17.7161 35.3046 17.7412 35.2166 17.7584C35.1303 17.7757 35.0172 17.7843 34.8775 17.7843Z" fill="white"/>
<path d="M31.1937 17.7205H30.6309V17.0493H31.1937V17.7205Z" fill="white"/>
<path d="M29.1073 17.7805C28.6881 17.7805 28.3623 17.6628 28.1299 17.4273C27.8991 17.1902 27.7837 16.8542 27.7837 16.4193C27.7837 15.9906 27.896 15.6499 28.1205 15.3972C28.345 15.1428 28.6386 15.0156 29.0013 15.0156C29.1646 15.0156 29.309 15.0392 29.4346 15.0863C29.5602 15.1334 29.6701 15.2072 29.7644 15.3077C29.8586 15.4081 29.9308 15.5314 29.981 15.6774C30.0313 15.8219 30.0564 15.9993 30.0564 16.2097V16.4499H28.2335C28.2335 16.7561 28.3105 16.99 28.4643 17.1517C28.6182 17.3134 28.8309 17.3943 29.1026 17.3943C29.1999 17.3943 29.2949 17.3833 29.3875 17.3613C29.4817 17.3394 29.5665 17.3111 29.6419 17.2765C29.722 17.2404 29.7895 17.2059 29.8444 17.1729C29.8994 17.1384 29.9449 17.1062 29.981 17.0764H30.0069V17.5592C29.9551 17.5796 29.8907 17.6055 29.8138 17.6369C29.7369 17.6667 29.6678 17.6903 29.6066 17.7075C29.5202 17.7311 29.4417 17.7491 29.371 17.7617C29.302 17.7743 29.214 17.7805 29.1073 17.7805ZM29.6254 16.1108C29.6223 15.9914 29.6081 15.8886 29.583 15.8022C29.5579 15.7159 29.5218 15.6429 29.4747 15.5832C29.4229 15.5173 29.3561 15.467 29.2745 15.4325C29.1944 15.3979 29.0947 15.3807 28.9754 15.3807C28.8576 15.3807 28.7571 15.3987 28.6739 15.4348C28.5923 15.4694 28.5177 15.5204 28.4502 15.5879C28.3842 15.657 28.334 15.7339 28.2995 15.8187C28.2649 15.9019 28.2429 15.9993 28.2335 16.1108H29.6254Z" fill="white"/>
<path d="M27.3244 17.7198H26.8817V17.4513C26.8126 17.5094 26.7529 17.5573 26.7027 17.5949C26.6524 17.6326 26.5936 17.6672 26.526 17.6986C26.4632 17.7284 26.3981 17.7512 26.3306 17.7669C26.2631 17.7841 26.1845 17.7928 26.0951 17.7928C25.9522 17.7928 25.8195 17.7629 25.697 17.7033C25.5761 17.6436 25.4733 17.5565 25.3885 17.4418C25.3022 17.3257 25.2354 17.1828 25.1883 17.0132C25.1412 16.8421 25.1177 16.6458 25.1177 16.4244C25.1177 16.1936 25.1475 15.9942 25.2072 15.8262C25.2668 15.6567 25.3493 15.5091 25.4545 15.3835C25.5502 15.2689 25.6656 15.1794 25.8007 15.115C25.9373 15.049 26.0801 15.0161 26.2293 15.0161C26.3612 15.0161 26.4758 15.031 26.5731 15.0608C26.6705 15.0891 26.7733 15.1338 26.8817 15.1951V14.0552H27.3244V17.7198ZM26.8817 17.0792V15.5625C26.7718 15.5091 26.6728 15.4722 26.5849 15.4518C26.4986 15.4314 26.4044 15.4212 26.3023 15.4212C26.0746 15.4212 25.8964 15.5067 25.7677 15.6779C25.6389 15.8474 25.5746 16.0931 25.5746 16.415C25.5746 16.7243 25.624 16.9614 25.7229 17.1263C25.8219 17.2896 25.9804 17.3712 26.1987 17.3712C26.3149 17.3712 26.4318 17.3453 26.5496 17.2935C26.6674 17.2401 26.778 17.1687 26.8817 17.0792Z" fill="white"/>
<path d="M24.8441 16.4052C24.8441 16.8479 24.7373 17.1902 24.5238 17.432C24.3102 17.6722 24.0261 17.7923 23.6712 17.7923C23.3054 17.7923 23.0173 17.6683 22.8069 17.4202C22.5981 17.1706 22.4937 16.8322 22.4937 16.4052C22.4937 15.9655 22.6012 15.624 22.8163 15.3807C23.033 15.1373 23.3179 15.0156 23.6712 15.0156C24.0261 15.0156 24.3102 15.1373 24.5238 15.3807C24.7373 15.6225 24.8441 15.964 24.8441 16.4052ZM24.3872 16.4052C24.3872 16.0644 24.3252 15.8117 24.2011 15.6468C24.0771 15.4804 23.9004 15.3972 23.6712 15.3972C23.4404 15.3972 23.2622 15.4804 23.1366 15.6468C23.0126 15.8117 22.9505 16.0644 22.9505 16.4052C22.9505 16.7349 23.0126 16.9853 23.1366 17.1564C23.2622 17.326 23.4404 17.4108 23.6712 17.4108C23.8989 17.4108 24.0747 17.3276 24.1988 17.1611C24.3244 16.9931 24.3872 16.7411 24.3872 16.4052Z" fill="white"/>
<path d="M21.189 17.7843C20.9598 17.7843 20.7486 17.7459 20.5555 17.6689C20.364 17.592 20.1983 17.4774 20.0586 17.3251C19.9188 17.1728 19.8105 16.9828 19.7336 16.7552C19.6566 16.5275 19.6182 16.2661 19.6182 15.9709C19.6182 15.6773 19.6551 15.4214 19.7289 15.2031C19.8042 14.9849 19.9133 14.7949 20.0562 14.6332C20.196 14.4762 20.3616 14.3569 20.5531 14.2752C20.7447 14.192 20.959 14.1504 21.1961 14.1504C21.3139 14.1504 21.4238 14.159 21.5258 14.1763C21.6294 14.1936 21.7252 14.2155 21.8131 14.2422C21.8885 14.2658 21.9654 14.2956 22.0439 14.3317C22.124 14.3663 22.2025 14.4047 22.2795 14.4471V15.01H22.2418C22.201 14.9723 22.1484 14.9268 22.084 14.8734C22.0196 14.82 21.9411 14.7674 21.8485 14.7156C21.759 14.6669 21.6616 14.6269 21.5564 14.5955C21.4512 14.5641 21.3296 14.5484 21.1914 14.5484C21.0422 14.5484 20.9009 14.579 20.7675 14.6403C20.634 14.7015 20.517 14.7918 20.4166 14.9111C20.3176 15.0304 20.2407 15.1804 20.1857 15.3609C20.1308 15.5415 20.1033 15.7448 20.1033 15.9709C20.1033 16.2111 20.1324 16.4184 20.1905 16.5927C20.2486 16.7654 20.3278 16.9114 20.4283 17.0307C20.5257 17.1469 20.6403 17.2348 20.7722 17.2945C20.9041 17.3526 21.0438 17.3816 21.1914 17.3816C21.3264 17.3816 21.4512 17.3651 21.5659 17.3322C21.6805 17.2992 21.7825 17.2576 21.872 17.2073C21.9584 17.1587 22.033 17.1092 22.0958 17.059C22.1586 17.0072 22.208 16.9632 22.2441 16.9271H22.2795V17.4829C22.2025 17.519 22.1295 17.5535 22.0604 17.5865C21.9929 17.6195 21.9105 17.6517 21.8131 17.6831C21.7111 17.7161 21.6161 17.7412 21.5282 17.7584C21.4418 17.7757 21.3288 17.7843 21.189 17.7843Z" fill="white"/>
<path d="M17.5053 17.7205H16.9424V17.0493H17.5053V17.7205Z" fill="white"/>
<path d="M16.1943 17.7193H15.7515V16.2215C15.7515 16.1006 15.7452 15.9883 15.7327 15.8847C15.7217 15.7795 15.6997 15.6955 15.6667 15.6327C15.6306 15.5667 15.5804 15.5181 15.516 15.4867C15.4516 15.4537 15.3637 15.4372 15.2522 15.4372C15.1423 15.4372 15.0285 15.467 14.9107 15.5267C14.7945 15.5848 14.6807 15.6609 14.5692 15.7551V17.7193H14.1265V15.0886H14.5692V15.3807C14.7011 15.2629 14.8314 15.1726 14.9602 15.1098C15.0889 15.047 15.2247 15.0156 15.3676 15.0156C15.6267 15.0156 15.8292 15.1012 15.9752 15.2723C16.1213 15.4419 16.1943 15.6884 16.1943 16.0118V17.7193Z" fill="white"/>
<path d="M13.0428 17.0057V15.562C12.9329 15.5086 12.8308 15.4709 12.7366 15.449C12.644 15.4254 12.5514 15.4136 12.4587 15.4136C12.2342 15.4136 12.0576 15.4961 11.9288 15.6609C11.8001 15.8258 11.7357 16.0621 11.7357 16.3698C11.7357 16.6619 11.7844 16.884 11.8817 17.0363C11.9806 17.1886 12.14 17.2648 12.3598 17.2648C12.4744 17.2648 12.5922 17.242 12.7131 17.1965C12.8355 17.1509 12.9455 17.0874 13.0428 17.0057ZM11.5544 18.1409C11.5842 18.1534 11.6282 18.1699 11.6862 18.1903C11.7443 18.2123 11.8103 18.2327 11.8841 18.2516C11.9657 18.272 12.0411 18.2885 12.1102 18.301C12.1793 18.3136 12.2546 18.3199 12.3363 18.3199C12.4729 18.3199 12.5883 18.3018 12.6825 18.2657C12.7782 18.2296 12.8528 18.1793 12.9062 18.115C12.9564 18.0506 12.9918 17.976 13.0122 17.8912C13.0326 17.8065 13.0428 17.7099 13.0428 17.6016V17.3708C12.9235 17.4744 12.8065 17.5513 12.6919 17.6016C12.5773 17.6502 12.4336 17.6746 12.2609 17.6746C11.961 17.6746 11.7224 17.5631 11.5449 17.3401C11.3675 17.1172 11.2788 16.7969 11.2788 16.3792C11.2788 16.161 11.3094 15.9679 11.3707 15.7999C11.4319 15.6303 11.5143 15.4867 11.6179 15.3689C11.7169 15.2558 11.8338 15.1687 11.9689 15.1075C12.1039 15.0462 12.2436 15.0156 12.3881 15.0156C12.5247 15.0156 12.6424 15.0321 12.7413 15.0651C12.8418 15.0965 12.9423 15.142 13.0428 15.2017L13.0687 15.0886H13.4856V17.4202C13.4856 17.8661 13.3882 18.1935 13.1935 18.4023C12.9988 18.6111 12.7013 18.7155 12.3009 18.7155C12.1722 18.7155 12.0403 18.7053 11.9053 18.6849C11.7718 18.6645 11.647 18.637 11.5308 18.6025V18.1409H11.5544Z" fill="white"/>
<path d="M10.8103 17.7203H10.3675V15.0896H10.8103V17.7203ZM10.8409 14.6492H10.3369V14.1899H10.8409V14.6492Z" fill="white"/>
<path d="M8.91672 17.7828C8.74087 17.7828 8.57601 17.7592 8.42214 17.7121C8.26985 17.665 8.14345 17.6148 8.04297 17.5614V17.0644H8.06652C8.1042 17.0943 8.14816 17.1272 8.19841 17.1634C8.25022 17.1995 8.31852 17.2372 8.4033 17.2764C8.47867 17.3109 8.5611 17.3416 8.65059 17.3683C8.74166 17.3949 8.83586 17.4083 8.93321 17.4083C9.00386 17.4083 9.07922 17.4004 9.1593 17.3847C9.23937 17.3675 9.29904 17.3463 9.33829 17.3212C9.39324 17.285 9.43249 17.2466 9.45604 17.2058C9.48117 17.1649 9.49373 17.1037 9.49373 17.0221C9.49373 16.9169 9.46468 16.8376 9.40659 16.7842C9.35006 16.7308 9.24879 16.6861 9.10278 16.6499C9.04625 16.6358 8.97246 16.6193 8.88139 16.6005C8.79033 16.5816 8.70633 16.5612 8.6294 16.5392C8.42842 16.4812 8.28241 16.3917 8.19134 16.2708C8.10028 16.1483 8.05474 16.0007 8.05474 15.828C8.05474 15.5909 8.14424 15.3978 8.32323 15.2486C8.50222 15.0995 8.74009 15.0249 9.03683 15.0249C9.18285 15.0249 9.32965 15.043 9.47724 15.0791C9.62483 15.1152 9.74887 15.1607 9.84935 15.2157V15.689H9.8258C9.71275 15.5996 9.58636 15.5289 9.44662 15.4771C9.30846 15.4253 9.16872 15.3994 9.02741 15.3994C8.88139 15.3994 8.75814 15.43 8.65766 15.4912C8.55717 15.5525 8.50693 15.6451 8.50693 15.7691C8.50693 15.879 8.53676 15.9615 8.59642 16.0164C8.65609 16.0698 8.75186 16.1138 8.88375 16.1483C8.94969 16.1656 9.0227 16.1828 9.10278 16.2001C9.18442 16.2158 9.26999 16.2347 9.35948 16.2566C9.55418 16.3053 9.70019 16.3862 9.79754 16.4992C9.89645 16.6123 9.94591 16.7661 9.94591 16.9608C9.94591 17.0739 9.92314 17.1814 9.87761 17.2835C9.83365 17.384 9.76849 17.4703 9.68214 17.5425C9.58793 17.621 9.48117 17.6807 9.36184 17.7215C9.24408 17.7623 9.09571 17.7828 8.91672 17.7828Z" fill="white"/>
<path d="M6.80844 17.7805C6.38923 17.7805 6.06344 17.6628 5.83107 17.4273C5.60026 17.1902 5.48486 16.8542 5.48486 16.4193C5.48486 15.9906 5.59712 15.6499 5.82165 15.3972C6.04617 15.1428 6.33977 15.0156 6.70246 15.0156C6.86575 15.0156 7.0102 15.0392 7.13581 15.0863C7.26141 15.1334 7.37132 15.2072 7.46553 15.3077C7.55973 15.4081 7.63195 15.5314 7.6822 15.6774C7.73244 15.8219 7.75756 15.9993 7.75756 16.2097V16.4499H5.93469C5.93469 16.7561 6.01163 16.99 6.1655 17.1517C6.31936 17.3134 6.53211 17.3943 6.80373 17.3943C6.90108 17.3943 6.99607 17.3833 7.0887 17.3613C7.18291 17.3394 7.26769 17.3111 7.34306 17.2765C7.42313 17.2404 7.49065 17.2059 7.5456 17.1729C7.60055 17.1384 7.64609 17.1062 7.6822 17.0764H7.7081V17.5592C7.65629 17.5796 7.59192 17.6055 7.51498 17.6369C7.43805 17.6667 7.36897 17.6903 7.30773 17.7075C7.22138 17.7311 7.14287 17.7491 7.07222 17.7617C7.00314 17.7743 6.91521 17.7805 6.80844 17.7805ZM7.32657 16.1108C7.32343 15.9914 7.3093 15.8886 7.28418 15.8022C7.25906 15.7159 7.22295 15.6429 7.17584 15.5832C7.12403 15.5173 7.0573 15.467 6.97566 15.4325C6.89558 15.3979 6.79588 15.3807 6.67656 15.3807C6.5588 15.3807 6.45832 15.3987 6.3751 15.4348C6.29346 15.4694 6.21888 15.5204 6.15136 15.5879C6.08542 15.657 6.03518 15.7339 6.00064 15.8187C5.96609 15.9019 5.94411 15.9993 5.93469 16.1108H7.32657Z" fill="white"/>
<path d="M5.19314 15.9698C5.19314 16.2901 5.12798 16.579 4.99767 16.8365C4.86892 17.094 4.69543 17.295 4.47718 17.4394C4.29976 17.5509 4.1192 17.6255 3.9355 17.6632C3.75337 17.7008 3.52022 17.7197 3.23603 17.7197H2.42822V14.2129H3.22661C3.55633 14.2129 3.81461 14.238 4.00145 14.2883C4.18986 14.3369 4.35001 14.4044 4.48189 14.4908C4.70799 14.64 4.88305 14.8386 5.00709 15.0866C5.13112 15.3331 5.19314 15.6275 5.19314 15.9698ZM4.70799 15.9628C4.70799 15.6927 4.66324 15.4627 4.57374 15.2727C4.48425 15.0811 4.35158 14.932 4.17573 14.8252C4.05169 14.7499 3.91902 14.6957 3.77771 14.6627C3.6364 14.6297 3.46055 14.6133 3.25016 14.6133H2.89454V17.3193H3.25016C3.45741 17.3193 3.63876 17.3028 3.7942 17.2698C3.94964 17.2369 4.09173 17.1756 4.22048 17.0861C4.38219 16.9762 4.50388 16.8302 4.58552 16.6481C4.66716 16.4644 4.70799 16.2359 4.70799 15.9628Z" fill="white"/>
<path d="M42.3492 11.5388V3.229H39.3149V1.27051H47.9627V3.229H44.9284V11.5388H42.3492Z" fill="url(#paint0_linear_1191_4478)"/>
<path d="M34.6303 8.39419C34.6303 8.9045 34.5337 9.35275 34.3406 9.73893C34.1475 10.1251 33.8878 10.4446 33.5614 10.6975C33.1752 11.0009 32.7499 11.217 32.2856 11.3457C31.8258 11.4744 31.2397 11.5388 30.5271 11.5388H26.417V1.27051H30.0443C30.7983 1.27051 31.3684 1.30039 31.7546 1.36016C32.1454 1.41533 32.5108 1.53486 32.8511 1.71875C33.2189 1.91644 33.4924 2.18079 33.6717 2.51181C33.8556 2.84282 33.9475 3.2244 33.9475 3.65656C33.9475 4.15768 33.8211 4.60363 33.5683 4.99441C33.32 5.38519 32.9752 5.67252 32.5338 5.85642V5.91159C33.1683 6.04491 33.6763 6.31846 34.0579 6.73222C34.4395 7.14139 34.6303 7.69538 34.6303 8.39419ZM31.327 4.17377C31.327 4.00826 31.2833 3.83816 31.196 3.66346C31.1132 3.48876 30.9822 3.36233 30.8029 3.28417C30.6328 3.21061 30.4305 3.17153 30.1961 3.16694C29.9662 3.15774 29.6214 3.15315 29.1616 3.15315H28.9823V5.32542H29.3065C29.7478 5.32542 30.0558 5.32082 30.2305 5.31163C30.4098 5.30243 30.5937 5.25416 30.7822 5.16681C30.9891 5.07026 31.1316 4.93694 31.2098 4.76683C31.2879 4.59673 31.327 4.39904 31.327 4.17377ZM31.9753 8.34591C31.9753 8.02869 31.9109 7.78043 31.7822 7.60113C31.6534 7.42184 31.4603 7.28621 31.2029 7.19426C31.0466 7.1345 30.8305 7.10232 30.5547 7.09772C30.2834 7.08852 29.9179 7.08393 29.4582 7.08393H28.9823V9.65617H29.1203C29.7915 9.65617 30.2558 9.65158 30.5133 9.64238C30.7707 9.63319 31.0328 9.57112 31.2994 9.45619C31.5339 9.35504 31.704 9.20793 31.8097 9.01484C31.9201 8.81715 31.9753 8.59417 31.9753 8.34591Z" fill="url(#paint1_linear_1191_4478)"/>
<path d="M22.6328 11.7451C21.9938 11.7451 21.4076 11.6646 20.8743 11.5037C20.3456 11.3428 19.8859 11.0945 19.4951 10.7589C19.1089 10.4233 18.8078 10.0027 18.5917 9.49694C18.3756 8.98663 18.2676 8.38667 18.2676 7.69706C18.2676 6.95687 18.3848 6.32703 18.6193 5.80752C18.8537 5.28802 19.171 4.86046 19.5709 4.52485C19.9571 4.20303 20.41 3.96626 20.9295 3.81455C21.4536 3.65823 21.9984 3.58008 22.5639 3.58008C22.9914 3.58008 23.419 3.63065 23.8465 3.73179C24.2741 3.82834 24.7039 3.98465 25.1361 4.20073V6.26956H24.8258C24.7292 6.17761 24.6097 6.07647 24.4672 5.96613C24.3293 5.8558 24.1775 5.75465 24.012 5.6627C23.8373 5.56616 23.6396 5.4857 23.419 5.42134C23.1983 5.35238 22.9523 5.3179 22.6811 5.3179C22.065 5.3179 21.5869 5.53398 21.2467 5.96613C20.9111 6.39369 20.7433 6.97067 20.7433 7.69706C20.7433 8.47402 20.9226 9.05329 21.2812 9.43488C21.6444 9.81646 22.1248 10.0073 22.7225 10.0073C23.0259 10.0073 23.2925 9.97277 23.5224 9.90381C23.7523 9.83485 23.95 9.7521 24.1155 9.65555C24.2764 9.55901 24.4143 9.46016 24.5292 9.35902C24.6442 9.25328 24.743 9.15903 24.8258 9.07628H25.1361V11.1451C24.9982 11.2049 24.8373 11.2738 24.6534 11.352C24.4741 11.4302 24.2902 11.4945 24.1017 11.5451C23.8672 11.6095 23.6465 11.6577 23.4397 11.6899C23.2374 11.7267 22.9684 11.7451 22.6328 11.7451Z" fill="url(#paint2_linear_1191_4478)"/>
<path d="M14.414 11.7473C12.9521 11.7473 11.8303 11.3979 11.0487 10.6991C10.2718 10.0002 9.8833 9.00491 9.8833 7.71304C9.8833 6.44875 10.2465 5.43962 10.9729 4.68565C11.6993 3.93167 12.7153 3.55469 14.021 3.55469C15.2071 3.55469 16.099 3.87421 16.6967 4.51325C17.2943 5.15229 17.5932 6.06717 17.5932 7.2579V8.12681H12.3038C12.3268 8.4854 12.4027 8.78653 12.5314 9.0302C12.6601 9.26926 12.8302 9.46005 13.0417 9.60257C13.2486 9.74509 13.49 9.84853 13.7658 9.9129C14.0417 9.97266 14.3428 10.0025 14.6692 10.0025C14.9496 10.0025 15.2255 9.97266 15.4967 9.9129C15.768 9.84853 16.0162 9.76578 16.2415 9.66464C16.4392 9.57729 16.6208 9.48304 16.7863 9.3819C16.9564 9.28075 17.0943 9.1911 17.2001 9.11295H17.4552V11.1059C17.2575 11.1841 17.0759 11.2576 16.9104 11.3266C16.7495 11.391 16.5266 11.4576 16.2415 11.5266C15.9795 11.5955 15.7082 11.6484 15.4278 11.6852C15.1519 11.7266 14.814 11.7473 14.414 11.7473ZM15.214 6.67173C15.2002 6.16142 15.0807 5.77294 14.8554 5.50629C14.6347 5.23964 14.2945 5.10631 13.8348 5.10631C13.3658 5.10631 12.998 5.24653 12.7314 5.52697C12.4693 5.80742 12.3245 6.189 12.2969 6.67173H15.214Z" fill="url(#paint3_linear_1191_4478)"/>
<path d="M3.91026 11.5388V3.229H0.875977V1.27051H9.5237V3.229H6.48941V11.5388H3.91026Z" fill="url(#paint4_linear_1191_4478)"/>
<path d="M38.4567 11.5399H36.0431V3.79558H38.4567V11.5399ZM38.5257 2.69221H35.9741V0.80957H38.5257V2.69221Z" fill="url(#paint5_linear_1191_4478)"/>
<rect x="35.9741" y="0.811035" width="2.61437" height="1.83006" fill="#FCB827"/>
<defs>
<linearGradient id="paint0_linear_1191_4478" x1="38.8741" y1="8.91711" x2="51.6198" y2="8.01331" gradientUnits="userSpaceOnUse">
<stop stop-color="#2384C3"/>
<stop offset="0.301184" stop-color="#23AF95"/>
<stop offset="1" stop-color="#24DA67"/>
</linearGradient>
<linearGradient id="paint1_linear_1191_4478" x1="25.9983" y1="8.91711" x2="38.1096" y2="8.10144" gradientUnits="userSpaceOnUse">
<stop stop-color="#2384C3"/>
<stop offset="0.301184" stop-color="#23AF95"/>
<stop offset="1" stop-color="#24DA67"/>
</linearGradient>
<linearGradient id="paint2_linear_1191_4478" x1="17.9174" y1="9.66039" x2="28.0409" y2="8.94335" gradientUnits="userSpaceOnUse">
<stop stop-color="#2384C3"/>
<stop offset="0.301184" stop-color="#23AF95"/>
<stop offset="1" stop-color="#24DA67"/>
</linearGradient>
<linearGradient id="paint3_linear_1191_4478" x1="9.49025" y1="9.65554" x2="20.8395" y2="8.75625" gradientUnits="userSpaceOnUse">
<stop stop-color="#2384C3"/>
<stop offset="0.301184" stop-color="#23AF95"/>
<stop offset="1" stop-color="#24DA67"/>
</linearGradient>
<linearGradient id="paint4_linear_1191_4478" x1="0.435112" y1="8.91711" x2="13.1808" y2="8.01331" gradientUnits="userSpaceOnUse">
<stop stop-color="#2384C3"/>
<stop offset="0.301184" stop-color="#23AF95"/>
<stop offset="1" stop-color="#24DA67"/>
</linearGradient>
<linearGradient id="paint5_linear_1191_4478" x1="35.844" y1="8.80025" x2="39.6221" y2="8.7246" gradientUnits="userSpaceOnUse">
<stop stop-color="#2384C3"/>
<stop offset="0.301184" stop-color="#23AF95"/>
<stop offset="1" stop-color="#24DA67"/>
</linearGradient>
</defs>
</svg>
